<svg width="24" height="24" viewBox="0 0 24 24" fill="none" xmlns="http://www.w3.org/2000/svg">
<path fill-rule="evenodd" clip-rule="evenodd" d="M2.5653 2.56542C2.78583 2.34489 3.14338 2.34489 3.36392 2.56542L11.9999 11.2014L20.6359 2.56542C20.8564 2.34489 21.214 2.34489 21.4345 2.56542C21.655 2.78595 21.655 3.14351 21.4345 3.36404L12.7985 12L21.4345 20.636C21.655 20.8565 21.655 21.2141 21.4345 21.4346C21.214 21.6552 20.8564 21.6552 20.6359 21.4346L11.9999 12.7986L3.36392 21.4346C3.14338 21.6552 2.78583 21.6552 2.5653 21.4346C2.34477 21.2141 2.34477 20.8565 2.5653 20.636L11.2013 12L2.5653 3.36404C2.34477 3.14351 2.34477 2.78595 2.5653 2.56542Z" fill="#626262"/>
</svg>
